
<?xml version="1.0" standalone="no"?>
<!DOCTYPE svg PUBLIC "-//W3C//DTD SVG 20010904//EN"
        "http://www.w3.org/TR/2001/REC-SVG-20010904/DTD/svg10.dtd">
<svg version="1.0" xmlns="http://www.w3.org/2000/svg"
     width="1280.000000pt" height="340.000000pt" viewBox="0 0 1280.000000 340.000000"
     preserveAspectRatio="xMidYMid meet">
    <metadata>
        Created by potrace 1.15, written by Peter Selinger 2001-2017
    </metadata>
    <g transform="translate(0.000000,340.000000) scale(0.100000,-0.100000)"
       stroke="none">
        <path d="M132 3373 c-27 -16 -67 -48 -88 -72 l-39 -44 -3 -215 c-2 -163 0
-217 9 -223 10 -5 10 -11 2 -21 -7 -8 -12 -68 -12 -161 -1 -146 -1 -147 21
-149 33 -2 40 -1 71 7 24 6 28 5 25 -10 -2 -10 -21 -23 -48 -32 -24 -8 -50
-23 -57 -32 -9 -11 -12 -72 -13 -214 0 -192 1 -197 19 -187 30 15 52 12 77
-11 19 -18 27 -20 53 -11 52 18 47 -5 -9 -37 -21 -12 -25 -11 -37 5 -7 10 -13
24 -13 31 0 15 -29 17 -64 3 l-26 -10 0 -319 c0 -271 2 -320 15 -331 8 -7 15
-18 14 -24 0 -7 -2 -6 -6 2 -13 33 -23 4 -23 -72 0 -71 3 -85 17 -91 17 -6 17
-7 1 -16 -16 -9 -18 -29 -18 -199 0 -180 1 -189 20 -195 19 -6 55 -69 51 -89
-1 -5 5 -16 14 -26 20 -22 4 -37 -45 -42 l-35 -3 -3 -216 -2 -215 30 -42 c42
-58 75 -73 155 -68 36 2 71 8 78 14 6 5 27 9 45 9 19 0 37 5 41 12 9 14 61 5
61 -10 0 -5 8 -9 18 -10 14 0 14 -2 -3 -9 -11 -5 -31 -18 -45 -29 l-25 -21
950 1 c523 0 975 4 1005 8 30 5 56 4 58 0 2 -5 355 -9 788 -9 777 0 784 0 784
20 0 27 36 27 52 0 13 -20 24 -20 1520 -20 l1507 0 3 28 3 27 28 -27 28 -28
484 0 c405 0 485 2 485 14 0 7 -15 21 -32 30 -18 8 -29 16 -24 16 5 0 3 7 -4
15 -16 19 -17 19 50 36 42 11 54 19 52 32 -2 14 5 17 37 17 34 0 42 -4 53 -27
16 -34 38 -39 66 -16 26 22 20 69 -9 76 -13 3 -19 14 -19 31 0 29 25 45 43 27
6 -6 18 -11 26 -11 33 -1 56 -33 54 -75 -1 -22 -2 -52 -2 -66 -1 -16 -15 -40
-38 -62 l-36 -37 340 0 c291 0 342 2 347 15 6 18 -17 77 -38 95 -9 7 -16 26
-16 42 0 50 -52 127 -75 108 -15 -13 -59 11 -64 35 -2 11 -14 34 -28 51 -24
32 -26 32 -109 33 -82 1 -84 0 -84 -23 0 -13 -8 -34 -19 -47 l-18 -23 -9 25
c-4 13 -8 33 -8 44 -1 20 -9 20 -796 22 l-795 2 -17 -35 c-10 -19 -18 -41 -18
-49 0 -24 30 -45 55 -39 35 9 54 -7 24 -19 -13 -6 -26 -11 -29 -11 -3 -1 -19
-11 -36 -23 l-30 -22 -30 24 c-16 13 -39 24 -50 25 -12 0 -27 7 -34 15 -11 13
-10 18 5 29 21 15 15 39 -20 79 -24 27 -27 27 -117 25 -86 -3 -93 -5 -96 -24
-2 -11 4 -27 13 -34 29 -24 18 -39 -22 -33 -21 3 -40 7 -42 9 -2 2 2 18 8 35
9 25 8 34 -1 40 -16 10 -1542 9 -1558 -1 -8 -5 -8 -14 0 -34 14 -38 14 -38
-18 -31 -31 6 -149 -18 -165 -34 -16 -16 -67 -14 -67 3 0 8 -8 17 -17 21 -13
6 -5 10 30 16 64 10 108 31 105 49 -3 13 -95 15 -750 17 -627 1 -747 -1 -752
-13 -3 -7 -1 -16 4 -19 5 -3 7 -12 3 -20 -3 -9 0 -22 7 -30 10 -12 9 -15 -8
-15 -12 0 -24 5 -27 10 -3 6 -13 10 -21 10 -16 0 -54 35 -54 50 0 20 -39 28
-140 26 l-105 -1 3 -27 c2 -22 -2 -29 -23 -34 -29 -7 -59 12 -51 32 8 20 -29
36 -77 32 -38 -3 -42 -6 -45 -31 -4 -30 17 -57 43 -57 13 0 9 -8 -15 -30 -23
-21 -36 -27 -48 -21 -9 5 -30 15 -47 22 -16 8 -42 25 -57 38 l-28 24 22 11
c37 19 32 34 -14 40 -24 3 -216 5 -428 3 -373 -2 -385 -3 -395 -22 -23 -45
-25 -45 -55 -12 l-28 32 -454 6 c-249 3 -464 9 -478 14 -34 11 -97 51 -144 91
-21 18 -43 31 -48 28 -4 -3 -16 8 -26 25 -12 23 -24 31 -44 31 -16 0 -28 5
-28 10 0 6 12 10 28 10 15 0 32 8 38 17 6 11 10 95 9 218 -1 172 -3 205 -19
237 -19 40 -16 68 8 68 11 0 13 22 11 126 -2 86 -7 129 -15 134 -10 6 -10 8 0
12 15 5 21 179 7 223 -13 39 -36 65 -52 59 -10 -4 -12 1 -8 15 3 12 0 28 -6
35 -10 12 -6 14 30 13 41 -2 43 0 46 27 2 26 0 28 -28 24 -34 -5 -34 11 0 28
22 11 23 16 22 153 0 77 0 146 -1 151 0 6 -12 10 -27 11 -26 0 -78 17 -59 18
5 1 3 8 -5 17 -8 10 -21 13 -36 9 -18 -4 -23 -1 -23 15 0 11 8 23 18 27 55 18
92 40 92 54 0 9 9 24 20 34 29 27 25 58 -9 73 -17 7 -36 12 -43 11 -29 -3 -39
2 -36 19 1 9 0 22 -4 27 -4 6 13 10 43 11 26 1 55 6 62 13 15 12 20 89 11 179
-6 53 -6 53 -37 52 -50 -3 -51 -2 -71 35 -11 19 -26 36 -35 37 -9 0 -20 2 -26
3 -5 2 -14 4 -20 5 -5 1 -1 5 10 9 11 5 54 6 97 3 74 -5 76 -4 80 19 1 13 8
24 13 24 6 0 26 15 45 33 52 48 119 89 170 102 25 7 49 15 54 18 6 3 32 4 58
3 54 -3 61 9 26 46 l-21 23 26 0 c15 0 27 -6 28 -12 1 -7 2 -22 3 -33 1 -20 9
-20 1159 -23 1003 -2 1157 0 1157 12 0 8 -5 18 -11 21 -14 10 -6 28 15 31 11
2 16 -3 14 -15 -6 -36 21 -51 87 -51 47 0 64 4 69 15 3 8 15 15 26 15 11 0 20
5 20 10 0 6 9 10 19 10 11 0 22 4 25 9 3 5 15 7 26 4 24 -6 26 10 5 50 -12 23
-12 32 -2 48 10 16 9 21 -2 28 -10 7 -11 13 -2 29 6 11 11 36 11 56 0 40 11
46 64 33 33 -9 45 -7 82 13 41 23 44 23 62 6 12 -10 18 -25 15 -37 -3 -10 0
-26 7 -34 10 -12 9 -15 -4 -15 -9 0 -16 7 -16 16 0 14 -8 15 -47 9 -75 -11
-85 -20 -79 -66 5 -39 5 -39 -35 -45 -45 -8 -59 -22 -37 -38 9 -6 17 -20 19
-31 2 -10 15 -22 29 -25 17 -4 21 -8 12 -14 -6 -4 -12 -16 -12 -26 0 -19 23
-20 1329 -20 l1330 0 20 29 c25 34 25 35 9 53 -20 21 -40 59 -35 65 3 2 14 0
24 -5 10 -6 25 -7 33 -2 8 4 34 10 57 14 41 6 43 5 61 -30 17 -33 44 -55 84
-70 9 -3 18 -16 20 -28 l3 -21 553 -3 c420 -2 552 1 552 10 0 6 -15 24 -32 40
-32 27 -32 28 -14 43 11 8 30 15 42 15 21 0 28 -16 37 -85 3 -24 57 -36 57
-12 0 30 76 27 95 -3 9 -15 801 -13 829 2 19 10 19 11 2 24 -10 7 -16 21 -14
31 3 15 14 18 78 18 l75 0 3 -30 c6 -51 16 -55 123 -55 91 0 99 2 99 19 0 11
-4 22 -10 26 -18 11 2 35 30 35 16 0 35 7 44 15 8 8 19 15 25 15 5 0 16 9 23
19 16 22 36 27 61 16 21 -9 47 10 47 36 0 10 -8 20 -17 23 -12 4 -18 17 -19
36 -1 39 -6 43 -51 44 -35 2 -38 4 -41 33 -3 25 1 32 20 37 38 10 68 7 68 -7
0 -7 6 -22 14 -33 12 -15 17 -16 27 -7 10 10 18 9 39 -4 27 -16 27 -16 13 -62
-7 -25 -18 -50 -23 -55 -6 -6 -10 -20 -10 -31 0 -12 -9 -30 -20 -40 -11 -10
-20 -25 -20 -34 -1 -19 -28 -57 -38 -53 -4 1 -7 -4 -7 -10 0 -10 54 -14 228
-16 191 -2 231 0 251 13 13 9 30 13 38 10 20 -8 34 41 18 60 -20 24 6 24 66 0
35 -15 69 -23 85 -19 21 4 28 -1 44 -30 l19 -36 588 3 c386 1 587 5 586 12 -2
6 -10 10 -18 10 -14 0 -40 39 -40 63 0 19 14 14 40 -13 26 -27 49 -32 68 -13
9 9 12 9 12 0 0 -6 20 -23 43 -37 50 -29 127 -35 127 -11 0 8 -4 18 -10 21
-18 11 -11 23 18 28 33 6 52 -8 49 -36 -2 -21 3 -22 94 -25 84 -2 97 0 113 17
19 21 56 18 56 -5 0 -11 37 -14 205 -14 l205 0 0 25 c0 14 5 25 11 25 5 0 9
-10 7 -22 -3 -21 2 -23 62 -31 35 -4 92 -21 126 -37 34 -17 71 -30 82 -30 12
0 24 -5 27 -10 3 -6 17 -7 30 -4 22 5 24 2 30 -40 10 -62 40 -61 73 1 10 18
19 21 64 18 29 -2 67 -9 83 -15 l30 -12 -35 -15 c-19 -8 -41 -22 -47 -31 -9
-11 -36 -17 -85 -21 l-73 -6 0 -190 0 -190 32 0 c40 0 60 -17 40 -34 -11 -9
-17 -8 -27 4 -7 8 -21 15 -31 15 -18 0 -19 -13 -19 -273 0 -266 1 -273 21
-285 20 -13 20 -14 3 -26 -9 -7 -14 -18 -10 -24 3 -6 2 -13 -4 -17 -11 -7 -15
-531 -4 -559 3 -9 15 -16 25 -16 10 0 48 -16 85 -36 36 -19 68 -33 72 -30 3 3
12 0 21 -8 9 -8 24 -16 34 -17 10 -2 18 -8 18 -14 0 -16 -61 -27 -109 -20 -37
5 -42 9 -37 26 4 13 1 21 -10 26 -9 3 -28 17 -41 30 -14 13 -32 23 -42 21 -14
-3 -17 -18 -20 -97 -3 -104 2 -115 49 -97 39 14 56 -7 28 -35 -25 -25 -24 -50
1 -56 10 -3 22 -13 25 -22 7 -22 49 -46 65 -36 6 4 9 13 6 21 -3 8 -1 14 5 14
5 0 12 -8 16 -18 3 -9 20 -29 36 -43 l30 -25 -23 -32 c-26 -35 -47 -39 -89
-17 -26 13 -61 67 -61 94 0 17 -38 32 -65 25 l-26 -6 2 -108 c2 -97 -1 -112
-25 -165 -52 -114 -166 -185 -302 -189 -31 -1 -50 -7 -58 -19 -17 -22 -22 -22
-29 3 -5 19 -21 19 -1033 17 l-1029 -2 -3 -22 c-3 -18 5 -26 38 -39 l41 -17
-22 -23 c-12 -13 -28 -24 -36 -24 -7 0 -13 -4 -13 -10 0 -10 -63 -40 -86 -40
-8 0 -14 6 -14 13 0 7 -9 23 -21 35 -22 25 -18 62 7 62 8 0 22 4 32 9 9 5 25
12 35 15 24 8 21 33 -5 39 -13 3 -157 6 -320 7 l-297 1 -3 -28 c-2 -21 -8 -27
-22 -25 -18 3 -56 -28 -56 -48 0 -5 6 -10 13 -10 15 0 47 -31 47 -44 0 -11
-72 3 -88 17 -9 7 -11 25 -6 65 5 41 3 56 -7 63 -22 14 -313 11 -327 -3 -15
-15 -16 -48 -2 -48 6 0 8 -11 4 -26 -9 -34 24 -64 70 -64 19 0 36 -5 38 -11 3
-9 9 -9 25 -1 17 9 24 7 41 -11 32 -34 17 -79 -27 -88 -49 -10 -59 -24 -39
-57 9 -15 25 -31 37 -37 12 -5 21 -13 21 -17 0 -5 93 -8 206 -8 134 0 203 3
199 10 -3 6 -1 10 4 10 6 0 11 -4 11 -8 0 -5 49 -10 109 -11 101 -2 110 -1
116 18 3 10 21 31 40 46 41 31 64 20 57 -27 -3 -23 0 -28 15 -28 22 0 57 33
46 43 -3 4 -15 7 -25 7 -16 0 -17 3 -6 23 7 12 14 23 15 25 6 13 57 -38 70
-70 l15 -38 289 0 c252 0 289 2 289 15 0 9 -12 20 -26 25 -22 9 -24 13 -14 25
9 11 10 19 1 28 -6 8 -7 17 -2 23 5 5 11 18 13 28 2 16 12 20 44 21 31 1 40
-2 37 -12 -3 -8 3 -13 16 -13 18 0 20 -4 14 -32 -3 -18 -10 -37 -14 -43 -16
-16 -10 -24 33 -45 44 -21 148 -28 148 -10 0 6 -6 10 -14 10 -20 0 -27 27 -11
40 12 10 18 5 32 -24 l17 -36 154 0 c136 0 156 2 168 18 12 16 14 16 42 0 21
-12 50 -18 94 -17 60 0 62 1 41 16 -13 8 -23 18 -23 22 0 4 34 7 75 9 51 1 75
-2 75 -9 0 -27 36 -38 123 -39 51 0 87 4 87 10 0 6 9 19 20 30 16 16 25 18 40
10 11 -6 20 -17 20 -25 0 -24 18 -26 52 -5 41 25 48 25 48 0 0 -20 7 -20 426
-20 471 0 453 -2 533 67 76 64 71 13 71 793 l0 701 -21 -12 c-18 -9 -24 -7
-37 13 -20 27 -23 68 -6 75 7 2 24 -3 38 -12 l26 -17 0 166 c0 104 -4 166 -10
166 -5 0 -10 11 -10 25 0 14 5 25 10 25 6 0 10 7 10 15 0 8 -4 15 -10 15 -5 0
-10 -4 -10 -10 0 -12 -10 -13 -29 -1 -21 14 4 54 30 46 17 -6 19 -1 19 38 0
26 -5 47 -12 49 -6 2 -12 16 -12 30 -1 17 3 24 11 21 10 -4 13 12 13 66 0 58
-3 71 -16 71 -9 0 -29 14 -44 30 -27 29 -28 33 -16 68 11 31 18 38 44 40 l32
3 0 389 0 388 -33 44 c-18 24 -55 58 -82 76 -49 32 -51 32 -172 32 -121 0
-146 -7 -124 -33 7 -9 4 -16 -10 -25 -11 -7 -17 -17 -14 -22 3 -6 -1 -10 -9
-10 -18 0 -20 12 -7 58 l10 32 -180 0 c-98 0 -179 -2 -179 -4 0 -23 26 -66 39
-66 10 0 26 -9 36 -20 15 -17 16 -20 3 -15 -9 4 -19 2 -23 -4 -3 -6 -17 -11
-29 -11 -13 0 -29 -7 -36 -15 -7 -8 -18 -15 -25 -15 -7 0 -18 -7 -25 -15 -7
-8 -24 -15 -37 -15 -22 0 -24 2 -13 15 10 12 10 25 2 53 -5 20 -9 48 -7 62 5
48 -7 52 -158 49 l-140 -3 -34 -35 -35 -36 7 38 7 37 -269 0 -269 0 -33 -34
c-42 -44 -101 -42 -101 3 0 20 -26 31 -77 31 -24 0 -33 -5 -33 -16 0 -12 -5
-14 -17 -8 -10 5 -49 9 -88 10 -38 1 -82 5 -97 9 -23 6 -29 3 -39 -18 -9 -20
-9 -33 1 -56 10 -25 10 -33 -3 -46 -24 -23 -72 -19 -103 10 -24 22 -26 29 -20
70 l7 45 -714 0 c-610 0 -719 -2 -743 -15 -17 -8 -32 -11 -37 -6 -5 5 -16 7
-23 4 -8 -3 -14 0 -14 6 0 7 -255 11 -865 11 -476 0 -865 -3 -865 -8 0 -4 6
-16 14 -27 7 -11 16 -41 20 -66 6 -42 5 -47 -15 -52 -12 -3 -32 1 -44 9 -12 8
-35 14 -51 12 -16 -1 -44 6 -62 16 -26 13 -31 21 -27 41 3 14 7 36 10 50 l5
25 -814 0 -814 0 -14 -22 c-11 -16 -26 -22 -60 -24 -42 -3 -47 0 -52 22 l-6
24 -430 0 -429 0 -16 -30 c-20 -39 -19 -63 5 -85 26 -24 26 -45 -1 -38 -15 4
-22 0 -26 -16 -3 -11 -9 -21 -14 -21 -18 0 -66 35 -62 46 2 6 -15 23 -37 39
-22 15 -40 33 -40 39 0 7 -6 24 -13 39 -11 26 -15 27 -89 27 -46 0 -78 -4 -78
-10 0 -5 9 -10 20 -10 21 0 27 -24 11 -49 -6 -9 -19 -12 -43 -7 -26 5 -38 14
-51 41 l-17 35 -201 0 c-175 0 -200 -2 -195 -15 3 -8 2 -15 -3 -15 -5 0 -14 7
-21 15 -11 13 -166 15 -1281 15 -698 0 -1269 -4 -1269 -8 0 -4 5 -13 12 -20 9
-9 6 -12 -15 -12 -20 0 -27 -5 -27 -19 0 -11 5 -23 10 -26 25 -16 -6 -25 -66
-21 -56 5 -66 3 -84 -16 -11 -12 -20 -30 -20 -40 0 -12 -19 -27 -59 -47 -77
-37 -99 -42 -122 -28 -14 9 -24 9 -37 1 -36 -23 -22 -84 19 -84 20 0 23 -8 11
-27 -6 -9 -23 -9 -76 2 -38 8 -73 12 -77 9 -20 -12 -7 10 16 28 29 22 27 42
-7 91 -13 18 -28 27 -46 27 -15 0 -40 1 -56 2 -43 4 -59 -27 -27 -53 13 -10
32 -19 42 -19 10 0 19 -4 19 -10 0 -5 0 -13 0 -17 0 -10 -53 -11 -72 -1 -10 5
-28 3 -45 -4 -15 -6 -36 -10 -45 -9 -10 1 -18 -3 -18 -8 0 -6 -7 -11 -15 -11
-17 0 -20 11 -5 26 5 5 6 24 1 46 -6 27 -5 42 5 57 8 10 11 26 8 34 -3 8 2 17
11 21 9 3 15 13 13 22 -3 18 5 20 96 27 38 3 51 8 57 23 4 11 14 26 23 33 30
25 16 31 -83 31 -89 0 -104 -3 -149 -27z m10688 -24 c15 -28 5 -53 -18 -44 -9
4 -27 7 -39 6 -14 0 -23 5 -23 14 0 9 6 12 16 8 10 -4 17 1 21 16 7 27 29 27
43 0z m-4220 -49 c-25 -16 -44 -11 -56 14 -9 18 -8 25 5 34 12 8 22 5 41 -14
21 -21 23 -26 10 -34z m-1378 18 c-7 -7 -12 -8 -12 -2 0 14 12 26 19 19 2 -3
-1 -11 -7 -17z m-2146 -10 c-3 -13 -6 -28 -6 -34 0 -6 -14 -14 -31 -18 -22 -4
-36 -1 -51 14 l-22 20 25 0 c14 0 34 9 45 19 27 28 48 27 40 -1z m8518 -3 c-4
-8 -10 -12 -15 -9 -14 8 -10 24 6 24 9 0 12 -6 9 -15z m97 -43 c1 -20 0 -47 0
-59 -1 -12 4 -25 12 -30 8 -4 17 -18 21 -30 6 -18 2 -22 -24 -28 -16 -4 -30
-10 -30 -14 0 -19 -27 -42 -43 -35 -23 9 -21 24 3 24 11 0 23 7 27 15 10 27
-18 105 -44 122 -27 18 -31 53 -5 51 42 -3 54 2 49 22 -4 17 -2 18 14 9 13 -7
19 -21 20 -47z m-1465 -16 c14 -11 16 -17 7 -27 -6 -6 -9 -18 -6 -25 10 -26
-6 -14 -22 16 -25 49 -17 64 21 36z m-8927 -13 c23 -9 23 -10 -17 -41 -36 -29
-41 -30 -53 -16 -10 12 -25 15 -58 11 -52 -6 -91 6 -91 28 0 14 11 19 37 16 6
-1 14 3 17 8 7 11 130 6 165 -6z m3881 -28 c0 -5 -5 -3 -10 5 -5 8 -10 20 -10
25 0 6 5 3 10 -5 5 -8 10 -19 10 -25z m810 9 c11 -12 11 -18 -2 -30 -16 -16
-48 -9 -48 10 0 13 20 36 31 36 4 0 12 -7 19 -16z m-604 -20 c15 -18 33 -18
54 1 15 14 18 14 23 1 3 -8 -2 -16 -14 -19 -10 -3 -19 -12 -19 -21 0 -21 37
-39 66 -32 26 7 33 -8 8 -18 -9 -3 -31 -6 -49 -6 -19 0 -40 -7 -49 -15 -8 -8
-17 -15 -20 -15 -3 0 -15 -9 -26 -20 -22 -22 -40 -26 -40 -10 0 6 7 10 15 10
17 0 20 16 5 25 -6 4 -18 1 -27 -7 -13 -10 -17 -10 -20 0 -7 18 -23 15 -42
-10 l-18 -22 -18 28 c-11 16 -24 25 -32 22 -10 -4 -13 0 -11 12 2 10 12 17 27
17 13 0 26 6 28 13 3 6 -3 12 -12 12 -11 0 -15 7 -13 23 3 19 8 22 38 19 23
-1 44 5 60 17 27 22 67 19 86 -5z m-3901 6 c3 -5 -1 -10 -9 -10 -9 0 -16 5
-16 10 0 6 4 10 9 10 6 0 13 -4 16 -10z m2328 -20 c9 0 19 -4 22 -10 7 -11
-63 -14 -90 -4 -14 6 -14 8 1 25 15 17 19 18 34 4 9 -8 24 -15 33 -15z m-1222
4 c16 -14 15 -17 -8 -42 -19 -20 -32 -26 -56 -23 -18 1 -34 4 -35 6 -8 7 33
64 47 68 29 8 34 7 52 -9z m8157 -19 c6 -14 16 -25 22 -25 7 0 18 -7 26 -15
14 -13 12 -16 -11 -25 -46 -18 -79 -7 -86 26 -3 18 0 35 9 47 20 23 27 22 40
-8z m-2821 -1 c-3 -3 -12 -4 -19 -1 -8 3 -5 6 6 6 11 1 17 -2 13 -5z m2926
-26 c-6 -30 -32 -39 -29 -10 1 14 27 45 33 39 0 -1 -1 -14 -4 -29z m-598 12
c3 -5 1 -10 -4 -10 -6 0 -11 5 -11 10 0 6 2 10 4 10 3 0 8 -4 11 -10z m-4447
-27 c8 -13 4 -21 -14 -36 -13 -10 -24 -25 -24 -34 0 -13 -9 -15 -51 -11 -28 3
-57 12 -65 20 -12 12 -10 14 18 14 30 0 60 17 92 51 16 17 33 16 44 -4z m3749
3 c27 -3 39 -9 42 -22 2 -10 11 -24 20 -31 14 -12 13 -13 -9 -8 -14 3 -37 2
-50 -3 -19 -7 -34 -4 -62 10 -21 11 -38 25 -38 32 0 20 23 36 41 31 10 -3 35
-7 56 -9z m2747 -43 c11 -15 20 -33 18 -40 -1 -7 5 -25 15 -40 l18 -28 -38 29
c-45 35 -60 60 -52 86 8 26 13 25 39 -7z m-2634 7 c0 -5 -4 -10 -10 -10 -5 0
-10 5 -10 10 0 6 5 10 10 10 6 0 10 -4 10 -10z m689 -16 c3 -16 1 -17 -13 -5
-19 16 -21 34 -3 29 6 -3 14 -13 16 -24z m-7949 -28 c0 -5 -7 -1 -15 10 -8 10
-14 24 -14 29 0 6 6 1 14 -9 8 -11 15 -24 15 -30z m7838 3 c-2 -6 -8 -10 -13
-10 -5 0 -11 4 -13 10 -2 6 4 11 13 11 9 0 15 -5 13 -11z m-5351 -21 c-3 -8
-6 -5 -6 6 -1 11 2 17 5 13 3 -3 4 -12 1 -19z m7853 -315 c0 -7 -7 -13 -15
-13 -26 0 -66 -32 -61 -47 8 -20 -18 -43 -48 -43 -29 0 -33 12 -11 34 8 8 15
22 15 30 0 9 4 16 9 16 5 0 22 13 37 29 23 25 30 28 51 18 12 -5 23 -16 23
-24z m-12311 -169 c-21 -11 -27 -10 -48 11 -36 35 -18 49 31 24 l42 -21 -25
-14z m-374 -264 c3 -5 23 -10 44 -10 22 0 44 -6 51 -15 7 -8 20 -15 29 -15 9
0 24 -11 34 -25 21 -29 9 -40 -45 -41 -27 0 -38 4 -41 18 -3 10 -18 21 -35 24
-35 7 -77 47 -67 63 8 14 22 14 30 1z m12605 -205 c0 -37 -2 -38 -37 -29 -39
11 -23 64 19 64 14 0 18 -8 18 -35z m50 -67 c0 -4 -9 -8 -21 -8 -11 0 -18 4
-15 8 3 5 12 9 21 9 8 0 15 -4 15 -9z m-12270 -30 c-27 -22 -53 -20 -58 4 -3
14 5 17 39 16 l43 0 -24 -20z m12180 -113 c15 9 97 -22 104 -40 2 -7 -2 -19
-10 -25 -8 -7 -14 -18 -14 -25 0 -8 -13 -16 -30 -20 -16 -4 -30 -13 -30 -21 0
-17 0 -17 -38 2 -27 13 -30 19 -25 44 3 19 0 34 -9 44 -12 11 -16 41 -9 64 1
1 12 -5 26 -14 13 -8 29 -13 35 -9z m-12255 -45 c3 -5 2 -10 -4 -10 -5 0 -13
5 -16 10 -3 6 -2 10 4 10 5 0 13 -4 16 -10z m55 -22 c0 -4 -7 -8 -15 -8 -8 0
-15 4 -15 8 0 5 7 9 15 9 8 0 15 -4 15 -9z m-225 -29 c-8 -13 -62 -11 -71 2
-4 7 0 9 12 5 11 -3 26 -1 34 4 16 10 33 3 25 -11z m-62 -85 c-6 -17 -73 -56
-87 -51 -6 2 -11 17 -11 33 0 28 22 55 55 66 18 7 50 -30 43 -48z m163 21 c9
-8 24 -15 34 -15 16 0 13 -6 -15 -32 -54 -51 -69 -62 -98 -77 -25 -13 -29 -13
-48 5 -19 20 -19 20 1 42 11 11 20 30 20 41 0 12 12 24 38 34 47 20 50 20 68
2z m12283 -56 c17 -6 31 -16 31 -22 0 -7 3 -30 7 -52 l6 -39 -31 32 c-18 18
-32 41 -32 52 0 10 -8 24 -17 29 -24 14 -4 14 36 0z m-12185 -154 c8 -8 23
-25 33 -38 10 -13 29 -29 42 -36 32 -17 14 -33 -42 -37 -33 -2 -47 1 -51 11
-8 23 -46 18 -72 -10 -22 -24 -74 -35 -74 -16 0 6 -18 21 -41 34 l-41 25 22
22 c18 18 29 21 58 15 48 -9 67 -26 20 -19 -38 7 -54 -6 -44 -33 5 -12 9 -13
21 -3 8 6 19 9 25 5 5 -3 10 -1 10 5 0 7 7 9 16 6 21 -8 45 11 38 29 -16 41
47 73 80 40z m12346 -25 c0 -5 -2 -10 -4 -10 -3 0 -8 5 -11 10 -3 6 -1 10 4
10 6 0 11 -4 11 -10z m-12659 -58 c-17 -3 -22 -8 -18 -23 6 -23 -11 -21 -27 3
-7 12 -6 21 3 32 10 12 17 13 39 3 26 -12 26 -12 3 -15z m289 -56 c0 -7 10
-16 21 -19 21 -6 21 -7 4 -23 -17 -17 -16 -19 9 -39 31 -25 25 -35 -20 -35
-34 0 -52 14 -34 25 6 4 7 12 3 18 -4 6 -6 24 -5 39 1 15 -3 28 -8 28 -6 0 -8
5 -5 10 9 15 35 12 35 -4z m100 -46 c0 -5 -4 -10 -10 -10 -5 0 -10 5 -10 10 0
6 5 10 10 10 6 0 10 -4 10 -10z m12230 -52 c0 -7 -5 -20 -10 -28 -9 -13 -12
-13 -21 3 -6 9 -14 15 -20 12 -5 -4 -9 1 -9 9 0 11 9 16 30 16 17 0 30 -5 30
-12z m-12620 -48 c0 -15 -38 -32 -45 -20 -3 5 -3 15 0 20 8 13 45 13 45 0z
m222 -241 c9 -5 18 -21 20 -36 2 -17 12 -32 26 -38 12 -5 22 -18 22 -27 0 -27
1 -31 11 -51 7 -13 6 -19 -6 -23 -10 -4 -13 -13 -10 -25 4 -11 2 -19 -4 -19
-19 0 -39 30 -34 50 4 14 0 20 -10 20 -9 0 -27 11 -40 24 -20 20 -21 25 -9 33
11 6 13 17 8 36 -9 37 -34 46 -55 18 -13 -17 -23 -20 -49 -15 -38 8 -41 28 -9
55 18 15 31 18 72 13 28 -4 58 -10 67 -15z m12363 -389 c3 -5 1 -10 -4 -10 -6
0 -11 5 -11 10 0 6 2 10 4 10 3 0 8 -4 11 -10z m-2335 -254 c0 -3 -4 -8 -10
-11 -5 -3 -10 -1 -10 4 0 6 5 11 10 11 6 0 10 -2 10 -4z m-8548 -38 c7 -7 34
-24 59 -37 47 -24 50 -31 40 -104 -2 -13 -72 -39 -89 -32 -10 4 -24 -4 -37
-21 -15 -19 -32 -27 -61 -30 -21 -1 -48 -6 -60 -9 -12 -4 -29 1 -43 12 l-23
19 47 23 c27 14 52 34 59 50 6 14 24 45 39 68 15 24 27 47 27 52 0 5 6 12 13
14 6 3 13 6 14 6 1 1 8 -5 15 -11z m8556 -23 c9 -20 9 -25 -2 -25 -13 0 -26
20 -26 41 0 18 17 8 28 -16z m718 3 c4 -5 -2 -8 -14 -8 -12 0 -27 -9 -34 -20
-7 -11 -19 -20 -26 -20 -10 0 -9 7 3 28 16 27 53 37 71 20z m-2286 -42 c0 -18
-68 -78 -83 -73 -18 6 -21 37 -4 37 8 0 17 7 21 15 3 9 16 20 28 25 32 12 38
12 38 -4z m-1775 -36 c10 -11 13 -20 7 -20 -7 0 -12 -7 -12 -16 0 -10 6 -14
15 -10 12 4 15 -3 15 -29 0 -34 -1 -35 -39 -35 -34 0 -41 4 -53 30 -7 17 -17
30 -22 30 -4 0 -3 7 4 15 7 9 10 18 6 22 -6 6 31 30 50 32 6 1 19 -8 29 -19z
m3572 -27 c-3 -3 -11 -2 -17 2 -8 5 -7 11 2 22 12 15 13 14 16 -1 2 -10 1 -20
-1 -23z m-7979 -41 c8 -22 6 -33 -9 -51 -19 -23 -21 -22 -23 14 -1 24 -35 31
-66 15 -15 -8 -20 -18 -17 -31 4 -15 0 -19 -19 -19 -22 0 -33 14 -16 22 4 2
15 17 24 33 16 29 30 34 105 44 6 0 15 -12 21 -27z m2727 18 c3 -5 -1 -10 -9
-10 -8 0 -18 5 -21 10 -3 6 1 10 9 10 8 0 18 -4 21 -10z m2164 -37 c-9 -2 -19
-16 -23 -31 -8 -39 -20 -54 -38 -47 -11 4 -16 18 -15 41 1 29 4 34 19 31 10
-3 21 -1 24 4 3 5 15 8 27 8 15 -1 17 -3 6 -6z m-3074 -33 c3 -5 3 -15 -1 -21
-6 -11 -23 6 -24 24 0 10 18 9 25 -3z m4973 -20 c-7 -11 -18 -20 -25 -20 -17
0 -16 5 3 24 22 23 37 20 22 -4z m-7374 -6 c5 -13 14 -15 41 -10 22 4 35 3 35
-4 0 -16 -97 -13 -103 4 -6 14 1 26 14 26 4 0 10 -7 13 -16z m5652 -22 c-10
-10 -29 15 -21 28 6 9 10 8 17 -4 6 -10 7 -20 4 -24z"/>
        <path d="M405 3390 c3 -5 12 -7 20 -4 15 6 35 -24 35 -55 0 -19 11 -25 47 -24
21 1 23 -27 3 -44 -11 -10 -20 -22 -20 -28 0 -17 58 -56 65 -44 4 5 14 9 23 8
32 -3 42 1 42 16 0 8 5 15 11 15 6 0 8 7 5 17 -4 9 -1 20 6 24 9 6 9 14 1 32
-8 18 -20 24 -43 25 -38 1 -54 12 -19 13 58 3 105 1 120 -5 19 -8 69 9 69 24
0 5 -7 10 -16 10 -14 0 -14 3 -4 15 11 13 -9 15 -169 15 -113 0 -180 -4 -176
-10z"/>
        <path d="M4240 3385 c0 -21 29 -31 51 -17 10 7 26 12 34 12 8 0 15 5 15 10 0
6 -22 10 -50 10 -38 0 -50 -4 -50 -15z"/>
        <path d="M7010 3390 c0 -5 4 -10 9 -10 6 0 13 5 16 10 3 6 -1 10 -9 10 -9 0
-16 -4 -16 -10z"/>
        <path d="M10420 3386 c0 -14 36 -26 58 -18 28 9 11 32 -23 32 -23 0 -35 -5
-35 -14z"/>
        <path d="M304 3286 c-3 -8 4 -25 15 -38 20 -21 22 -21 38 -5 15 15 15 17 -8
25 -13 5 -23 13 -21 18 2 5 -1 10 -7 12 -6 2 -14 -3 -17 -12z"/>
        <path d="M430 3252 l-23 -19 22 -22 c26 -26 38 -20 47 27 8 38 -10 43 -46 14z"/>
        <path d="M9057 3023 c-4 -3 -7 -12 -7 -20 0 -15 26 -18 34 -4 7 11 -18 33 -27
24z"/>
        <path d="M1430 2716 c-186 -39 -319 -135 -390 -280 -53 -108 -55 -134 -55
-721 1 -579 4 -623 55 -757 57 -152 232 -263 450 -286 242 -25 438 26 577 153
118 106 153 225 156 518 l2 172 -270 0 -270 0 -5 -227 c-6 -256 -8 -263 -76
-261 -73 2 -69 -39 -69 667 0 609 1 635 19 655 24 26 87 29 107 4 11 -12 15
-76 19 -277 l5 -261 270 0 270 0 3 130 c4 145 -11 343 -32 422 -22 84 -57 142
-123 203 -67 63 -153 110 -248 136 -82 22 -309 28 -395 10z"/>
        <path d="M2756 2714 c-214 -42 -377 -197 -419 -399 -18 -89 -17 -1157 1 -1240
44 -194 183 -332 389 -386 109 -29 297 -29 406 0 204 54 331 176 384 371 16
59 18 120 18 630 0 621 -1 637 -60 756 -66 135 -204 234 -377 268 -93 19 -248
19 -342 0z m221 -371 c17 -25 18 -70 18 -638 0 -648 -1 -666 -47 -678 -32 -9
-67 10 -75 40 -4 15 -8 303 -8 638 0 568 1 613 18 638 24 37 70 37 94 0z"/>
        <path d="M3655 2678 c-3 -7 -4 -452 -3 -988 l3 -975 238 -3 237 -2 1 537 c0
296 2 534 5 528 2 -5 38 -242 79 -525 42 -283 78 -521 80 -527 3 -10 47 -13
174 -13 l170 0 6 33 c3 17 34 248 70 512 35 264 66 491 68 505 2 14 5 -217 6
-512 l1 -538 240 0 240 0 0 990 0 990 -345 0 c-267 0 -347 -3 -350 -12 -3 -7
-28 -186 -55 -397 -27 -211 -51 -385 -53 -387 -1 -2 -24 149 -50 334 -27 185
-54 364 -60 397 l-12 60 -343 3 c-269 2 -344 0 -347 -10z"/>
        <path d="M5408 2684 c-5 -4 -8 -450 -8 -991 l0 -983 270 0 270 0 0 388 0 389
128 6 c148 7 216 20 291 54 80 38 127 92 154 177 20 66 22 89 22 341 0 287 -6
337 -50 425 -43 85 -127 143 -256 176 -52 14 -132 18 -439 21 -206 3 -378 1
-382 -3z m634 -376 c27 -13 38 -73 38 -213 0 -192 -19 -235 -102 -235 l-38 0
0 228 c0 126 3 231 6 235 7 7 73 -3 96 -15z"/>
        <path d="M6610 1700 l0 -990 425 0 425 0 -2 208 -3 207 -152 3 -153 3 0 779 0
780 -270 0 -270 0 0 -990z"/>
        <path d="M7517 2683 c-4 -3 -7 -449 -7 -990 l0 -983 460 0 460 0 -2 208 -3
207 -188 3 -187 2 2 198 3 197 160 5 160 5 0 195 0 195 -162 3 -163 2 0 170 0
170 173 2 172 3 0 205 0 205 -436 3 c-239 1 -439 -1 -442 -5z"/>
        <path d="M8414 2677 c-2 -7 -3 -100 -2 -207 l3 -195 153 -3 152 -3 0 -779 0
-780 270 0 270 0 0 780 0 779 153 3 152 3 0 205 0 205 -573 3 c-460 2 -574 0
-578 -11z"/>
        <path d="M9610 1700 l0 -990 460 0 460 0 -2 208 -3 207 -187 3 -188 2 0 200 0
200 160 0 160 0 0 200 0 200 -160 0 -160 0 0 170 0 170 170 0 170 0 0 210 0
210 -440 0 -440 0 0 -990z"/>
        <path d="M10600 1700 l0 -990 423 0 c237 0 450 5 487 10 87 14 180 61 225 113
20 23 45 70 57 107 22 63 22 80 26 659 5 776 -1 824 -106 941 -107 121 -261
150 -804 150 l-308 0 0 -990z m650 594 l25 -24 3 -474 c4 -516 -4 -666 -36
-698 -10 -11 -38 -22 -61 -25 l-41 -6 0 625 c0 344 3 627 6 631 13 12 80 -7
104 -29z"/>
        <path d="M12787 2403 c-11 -10 -8 -63 3 -63 6 0 10 16 10 35 0 36 -2 40 -13
28z"/>
        <path d="M486 2215 c-25 -37 -21 -55 13 -55 32 0 47 30 30 62 -13 24 -24 23
-43 -7z"/>
        <path d="M8070 55 c-6 -8 -9 -23 -5 -35 6 -18 14 -20 91 -20 85 0 106 11 62
31 -13 5 -34 16 -48 24 -32 19 -84 19 -100 0z"/>
        <path d="M248 29 c-31 -18 -20 -29 28 -29 38 0 45 3 42 18 -4 20 -45 27 -70
11z"/>
    </g>
</svg>
